<svg width="200" height="74" viewBox="0 0 200 74" fill="none" xmlns="http://www.w3.org/2000/svg">
<path d="M24.649 55.0827H12.6939C12.4551 55.0826 12.2186 55.1304 11.9982 55.2232C11.7777 55.316 11.5778 55.452 11.4098 55.6232C11.2419 55.7945 11.1094 55.9976 11.0199 56.2209C10.9304 56.4442 10.8857 56.6831 10.8885 56.9239V60.5642C10.8885 60.8032 10.9352 61.0399 11.0259 61.2608C11.1167 61.4816 11.2496 61.6822 11.4173 61.8513C11.5849 62.0203 11.784 62.1544 12.003 62.2458C12.2221 62.3373 12.4568 62.3844 12.6939 62.3844H21.059C21.5289 62.3746 21.9765 62.1805 22.3067 61.8432L25.9177 58.2029C26.1777 57.951 26.3566 57.626 26.4311 57.2703C26.5056 56.9145 26.4723 56.5444 26.3355 56.208C26.1987 55.8715 25.9648 55.5843 25.664 55.3837C25.3633 55.183 25.0096 55.0781 24.649 55.0827V55.0827Z" fill="#0052CC"/>
<path d="M34.5545 44.1055H1.71483C1.26003 44.1055 0.823855 44.2876 0.502262 44.6118C0.180669 44.936 0 45.3758 0 45.8343L0 71.5203C0.00183594 72.0006 0.191908 72.4607 0.528791 72.8003C0.865674 73.1399 1.32206 73.3316 1.79848 73.3334H5.57668C6.05431 73.3334 6.51248 73.1426 6.85087 72.8028C7.18926 72.463 7.38029 72.0018 7.38213 71.5203V53.1922C7.38122 52.9535 7.42706 52.717 7.51703 52.4962C7.607 52.2754 7.73933 52.0747 7.90643 51.9056C8.07352 51.7365 8.2721 51.6023 8.49075 51.5107C8.70941 51.4192 8.94385 51.3721 9.18062 51.3721H34.5545C34.791 51.373 35.0252 51.3267 35.2439 51.2359C35.4625 51.1451 35.6611 51.0116 35.8283 50.8431C35.9955 50.6745 36.1279 50.4743 36.218 50.2539C36.308 50.0335 36.3539 49.7973 36.353 49.5589V45.9186C36.3539 45.6802 36.308 45.4441 36.218 45.2237C36.1279 45.0033 35.9955 44.803 35.8283 44.6345C35.6611 44.4659 35.4625 44.3324 35.2439 44.2416C35.0252 44.1508 34.791 44.1046 34.5545 44.1055V44.1055Z" fill="#0052CC"/>
<path d="M74.6229 44.1055H41.7065C41.2517 44.1055 40.8155 44.2876 40.4939 44.6118C40.1723 44.936 39.9917 45.3758 39.9917 45.8343V71.6046C39.9917 72.0631 40.1723 72.5028 40.4939 72.827C40.8155 73.1513 41.2517 73.3334 41.7065 73.3334H45.6311C46.0859 73.3334 46.5221 73.1513 46.8437 72.827C47.1653 72.5028 47.3459 72.0631 47.3459 71.6046V53.1079C47.3478 52.6481 47.5297 52.2076 47.8523 51.8825C48.1748 51.5574 48.6116 51.3739 49.0677 51.372H57.6279C57.9671 51.3738 58.2983 51.4766 58.5798 51.6675C58.8612 51.8583 59.0805 52.1288 59.2101 52.4448C59.3397 52.7609 59.3737 53.1085 59.308 53.444C59.2424 53.7795 59.0798 54.088 58.8409 54.3307L58.5969 54.5766C58.2739 54.8989 57.8384 55.0805 57.384 55.0826H52.595C52.1414 55.0845 51.707 55.2675 51.3869 55.5915C51.0668 55.9155 50.8871 56.3541 50.8871 56.8114V60.6204C50.8871 61.0796 51.0676 61.52 51.389 61.8453C51.7103 62.1707 52.1465 62.3544 52.6019 62.3562H59.9492C60.4071 62.3541 60.8455 62.1697 61.1691 61.8432L75.8079 47.05C76.044 46.8096 76.2048 46.5047 76.2706 46.173C76.3364 45.8413 76.3043 45.4974 76.1781 45.184C76.052 44.8705 75.8374 44.6013 75.5609 44.4096C75.2845 44.2179 74.9583 44.1121 74.6229 44.1055V44.1055Z" fill="#0052CC"/>
<path d="M114.615 44.1055H81.6984C81.2429 44.1055 80.806 44.2874 80.4833 44.6114C80.1606 44.9354 79.9784 45.3752 79.9766 45.8343V49.6433C79.9784 50.1024 80.1606 50.5421 80.4833 50.8662C80.806 51.1902 81.2429 51.3721 81.6984 51.3721H110.837C111.291 51.3715 111.727 51.1896 112.049 50.8661L115.828 47.0852C116.074 46.8437 116.243 46.5334 116.313 46.1942C116.382 45.8551 116.35 45.5027 116.22 45.1823C116.089 44.8619 115.867 44.5881 115.581 44.3962C115.295 44.2043 114.958 44.1031 114.615 44.1055V44.1055Z" fill="#0052CC"/>
<path d="M118.226 66.0601H114.44C113.493 66.0601 112.726 66.8341 112.726 67.7889V71.6049C112.726 72.5596 113.493 73.3337 114.44 73.3337H118.226C119.173 73.3337 119.94 72.5596 119.94 71.6049V67.7889C119.94 66.8341 119.173 66.0601 118.226 66.0601Z" fill="#0052CC"/>
<path d="M157.025 50.7675L153.247 54.5765C152.926 54.9013 152.746 55.3409 152.745 55.7993V57.0643C152.745 57.5228 152.565 57.9625 152.243 58.2867C151.922 58.6109 151.485 58.7931 151.031 58.7931H149.776C149.321 58.7936 148.885 58.9755 148.563 59.299L144.785 63.108C144.545 63.3498 144.381 63.6579 144.315 63.9934C144.249 64.3288 144.283 64.6765 144.413 64.9925C144.542 65.3085 144.762 65.5786 145.045 65.7685C145.327 65.9585 145.658 66.0598 145.998 66.0596H151.031C151.486 66.0615 151.922 66.2452 152.244 66.5705C152.565 66.8958 152.745 67.3363 152.745 67.7955V71.6044C152.745 72.0629 152.926 72.5027 153.248 72.8269C153.569 73.1511 154.005 73.3332 154.46 73.3332H158.238C158.694 73.3332 159.131 73.1513 159.453 72.8273C159.776 72.5033 159.958 72.0636 159.96 71.6044V52.0044C159.961 51.6612 159.861 51.3254 159.673 51.0395C159.485 50.7536 159.217 50.5303 158.903 50.398C158.588 50.2656 158.243 50.2301 157.908 50.2959C157.574 50.3616 157.267 50.5257 157.025 50.7675V50.7675Z" fill="#0052CC"/>
<path d="M155.959 44.1052H149.922C149.467 44.1058 149.031 44.2877 148.709 44.6112L123.154 70.3815C122.914 70.6233 122.751 70.9314 122.684 71.2669C122.618 71.6023 122.652 71.9501 122.782 72.266C122.912 72.582 123.132 72.8521 123.414 73.042C123.696 73.232 124.028 73.3333 124.367 73.3332H130.404C130.859 73.3326 131.295 73.1507 131.617 72.8272L157.172 47.085C157.422 46.8448 157.594 46.5343 157.666 46.194C157.738 45.8536 157.706 45.4994 157.575 45.1774C157.444 44.8555 157.22 44.581 156.931 44.3897C156.643 44.1984 156.304 44.0992 155.959 44.1052V44.1052Z" fill="#0052CC"/>
<path d="M169.12 44.1055H165.335C164.388 44.1055 163.62 44.8795 163.62 45.8343V71.6046C163.62 72.5594 164.388 73.3334 165.335 73.3334H169.12C170.067 73.3334 170.835 72.5594 170.835 71.6046V45.8343C170.835 44.8795 170.067 44.1055 169.12 44.1055Z" fill="#0052CC"/>
<path d="M100.178 55.0684H96.3929C95.4459 55.0684 94.6781 55.8424 94.6781 56.7972V71.6044C94.6781 72.5592 95.4459 73.3332 96.3929 73.3332H100.178C101.125 73.3332 101.893 72.5592 101.893 71.6044V56.7972C101.893 55.8424 101.125 55.0684 100.178 55.0684Z" fill="#0052CC"/>
<path d="M192.744 0C190.816 0 188.967 0.772247 187.603 2.14686C186.24 3.52146 185.474 5.38583 185.474 7.32982C185.473 8.373 185.697 9.40392 186.129 10.3517L172.717 21.9473C171.152 20.7706 169.253 20.1347 167.301 20.1342H167.175L166.011 15.3132C167.263 14.5067 168.19 13.2784 168.628 11.847C169.066 10.4156 168.986 8.87402 168.402 7.49675C167.817 6.11949 166.767 4.99593 165.438 4.32614C164.109 3.65635 162.588 3.48379 161.144 3.8392C159.701 4.19461 158.43 5.05491 157.557 6.26693C156.684 7.47894 156.265 8.964 156.377 10.4577C156.488 11.9513 157.122 13.3567 158.165 14.4235C159.208 15.4902 160.593 16.1492 162.072 16.283L163.23 21.0829C161.814 21.7963 160.608 22.871 159.733 24.2002C158.857 25.5293 158.342 27.0665 158.238 28.6587L150.243 29.9026C149.503 28.3009 148.214 27.0223 146.614 26.3017C145.013 25.5812 143.209 25.4671 141.532 25.9804C139.855 26.4937 138.418 27.6 137.485 29.0959C136.552 30.5918 136.186 32.3769 136.454 34.1231C136.722 35.8693 137.606 37.4592 138.944 38.6008C140.282 39.7424 141.983 40.359 143.736 40.3371C145.489 40.3153 147.174 39.6565 148.484 38.4819C149.793 37.3073 150.638 35.6958 150.863 33.9435L158.852 32.6996C159.339 33.9487 160.093 35.0742 161.061 35.9961C162.028 36.9181 163.185 37.6138 164.45 38.0338C165.714 38.4538 167.055 38.5878 168.377 38.4262C169.698 38.2646 170.968 37.8114 172.097 37.0989L179.067 44.1968C178.225 45.7397 177.962 47.5373 178.329 49.2595C178.695 50.9817 179.665 52.5128 181.062 53.5716C182.458 54.6305 184.186 55.146 185.929 55.0235C187.672 54.901 189.312 54.1487 190.549 52.9048C191.786 51.6609 192.536 50.0088 192.662 48.252C192.788 46.4953 192.281 44.7517 191.234 43.3417C190.187 41.9316 188.67 40.9496 186.963 40.5761C185.256 40.2026 183.472 40.4626 181.939 41.3084L174.969 34.2175C175.82 32.8611 176.301 31.3024 176.365 29.6986C176.429 28.0948 176.072 26.5023 175.331 25.0816L188.771 13.4579C189.718 14.0801 190.796 14.4708 191.919 14.5991C193.042 14.7273 194.18 14.5895 195.241 14.1966C196.302 13.8038 197.257 13.1666 198.031 12.336C198.805 11.5053 199.376 10.5041 199.698 9.41184C200.021 8.31963 200.086 7.16661 199.889 6.04453C199.691 4.92245 199.237 3.86229 198.562 2.94839C197.886 2.03449 197.009 1.29208 195.999 0.780227C194.989 0.268377 193.875 0.00121574 192.744 0V0Z" fill="#0052CC"/>
</svg>
